<?xml version="1.0" encoding="UTF-8" standalone="no"?>
<svg
   xmlns:dc="http://purl.org/dc/elements/1.1/"
   xmlns:cc="http://creativecommons.org/ns#"
   xmlns:rdf="http://www.w3.org/1999/02/22-rdf-syntax-ns#"
   xmlns:svg="http://www.w3.org/2000/svg"
   xmlns="http://www.w3.org/2000/svg"
   viewBox="0 0 369.02606 108.37112"
   height="108.37112"
   width="369.02606"
   id="svg78"
   version="1.1">
  <metadata
     id="metadata84">
    <rdf:RDF>
      <cc:Work
         rdf:about="">
        <dc:format>image/svg+xml</dc:format>
        <dc:type
           rdf:resource="http://purl.org/dc/dcmitype/StillImage" />
        <dc:title></dc:title>
      </cc:Work>
    </rdf:RDF>
  </metadata>
  <defs
     id="defs82">
    <filter
       id="filter7242"
       style="color-interpolation-filters:sRGB">
      <feColorMatrix
         id="feColorMatrix7240"
         values="5.87679 0 0 -1.3551 -2.43839 0 5.87679 0 -1.3551 -2.43839 0 0 5.87679 -1.3551 -2.43839 0 0 0 1 0" />
    </filter>
  </defs>
  <g
     style="opacity:1"
     transform="translate(-0.1514148,-3.7739534)"
     id="g86">
    <path
       id="pullback"
       d="m 182.52675,110.68489 c -0.33994,-1.54773 0.17275,-6.19674 0.63266,-5.73683 0.14925,0.14924 0.67083,-0.0902 1.15907,-0.53201 0.48824,-0.44185 1.23002,-0.672 1.6484,-0.51145 1.15478,0.44312 0.91727,2.6022 -0.40025,3.63857 -0.6531,0.51373 -1.31231,1.72001 -1.50696,2.75755 -0.1903,1.0144 -0.5409,1.84436 -0.77911,1.84436 -0.23821,0 -0.57742,-0.65708 -0.75381,-1.46019 z m 2.91078,-4.27099 c 0.56469,-1.47155 0.30081,-1.84528 -0.67766,-0.95978 -0.53791,0.4868 -0.85879,1.07801 -0.71306,1.31381 0.41396,0.66979 1.06105,0.50507 1.39072,-0.35403 z m 33.455,4.0397 c 0,-0.65815 -0.13516,-1.54887 -0.30036,-1.97938 -0.1971,-0.51364 -0.027,-0.78274 0.49484,-0.78274 0.46532,0 0.79521,0.41058 0.79521,0.98969 0,1.17398 0.62862,1.27874 1.48454,0.24743 0.87876,-1.05884 1.48454,-0.91749 1.48454,0.34639 0,0.84672 0.13196,0.95669 0.59381,0.49484 0.82552,-0.82552 1.2702,-0.74431 1.8493,0.33773 0.44844,0.83792 0.301,0.93427 -1.46713,0.95867 -1.08112,0.0149 -1.96567,-0.20721 -1.96567,-0.49361 0,-0.28912 -0.54253,-0.16527 -1.21971,0.27844 -0.67084,0.43955 -1.33888,0.79918 -1.48454,0.79918 -0.14565,0 -0.26483,-0.53849 -0.26483,-1.19664 z m 37.1134,-0.008 c 0,-1.32857 0.98596,-3.30942 1.49169,-2.99687 0.27711,0.17127 0.37573,0.51869 0.21914,0.77205 -0.39893,0.64547 0.44982,0.5763 1.11717,-0.091 0.4057,-0.40571 0.76263,-0.14381 1.34879,0.98969 0.66512,1.28619 0.68085,1.54138 0.095,1.54138 -0.38612,0 -0.84301,-0.36737 -1.01531,-0.81639 -0.27859,-0.72597 -0.43869,-0.69856 -1.44566,0.24742 -1.32289,1.2428 -1.81087,1.33812 -1.81087,0.35377 z m -52.63317,-4.58291 c -0.51793,-0.51793 -0.35716,-3.97062 0.24659,-5.29571 0.76895,-1.687656 1.90458,-2.010176 3.04888,-0.865876 0.84077,0.840776 0.8849,1.167986 0.36853,2.732606 -0.57501,1.74228 -3.04197,4.05101 -3.664,3.42898 z m 2.57436,-3.39011 c 0.80439,-1.76543 0.7218,-2.20352 -0.41541,-2.20352 -0.80118,0 -0.98969,0.3299 -0.98969,1.73196 0,0.95258 0.18694,1.73196 0.41541,1.73196 0.22848,0 0.67384,-0.56718 0.98969,-1.2604 z m 33.84339,1.93168 c -0.25941,-0.50529 -0.60333,-1.77449 -0.76427,-2.82044 -0.22617,-1.46988 -0.0765,-2.133706 0.65908,-2.923266 0.85076,-0.91319 0.98506,-0.93454 1.26641,-0.20135 0.23371,0.60902 0.93805,0.82016 2.73601,0.82016 1.33171,0 2.42129,0.22268 2.42129,0.494844 0,0.274922 -1.31959,0.494852 -2.96907,0.494852 -1.63299,0 -2.96908,0.20904 -2.96908,0.46452 0,0.25549 0.99979,0.61445 2.22175,0.7977 1.2528,0.18787 2.09134,0.54419 1.92272,0.81703 -0.16492,0.26683 -1.05047,0.34289 -1.97433,0.16957 -1.45602,-0.27315 -1.67529,-0.18305 -1.67529,0.68837 0,0.90364 0.21988,0.97251 2.2268,0.69743 1.51141,-0.20716 2.22681,-0.12463 2.22681,0.25689 0,0.30915 -0.41753,0.5621 -0.92784,0.5621 -0.51031,0 -1.60317,0.13507 -2.4286,0.30015 -1.15726,0.23146 -1.6087,0.0899 -1.97239,-0.61855 z m 31.6084,-2.05833 c 0.0694,-1.3072 -0.0595,-2.677066 -0.28633,-3.044146 -0.53948,-0.87288 0.98759,-2.0018 2.70779,-2.0018 1.47587,0 3.40584,1.21271 2.83633,1.78222 -0.20823,0.20823 -0.6421,0.1151 -0.96417,-0.20696 -0.32206,-0.32206 -1.23289,-0.58557 -2.02408,-0.58557 -1.10842,0 -1.36958,0.17961 -1.13814,0.78274 0.1652,0.43051 0.30037,1.016356 0.30037,1.301866 0,0.31875 0.68111,0.40859 1.76458,0.23277 1.2497,-0.2028 1.70782,-0.1134 1.57,0.30639 -0.10702,0.326 -1.01243,0.66185 -2.01201,0.74632 -1.64634,0.13912 -1.81742,0.29052 -1.81742,1.60825 0,0.80006 -0.23919,1.45466 -0.53153,1.45466 -0.32255,0 -0.48194,-0.93448 -0.40539,-2.37673 z m -40.21374,1.63845 c -0.13389,-0.13389 -4.05115,-0.34334 -8.70502,-0.46544 -8.35083,-0.21908 -11.99951,-0.58451 -12.00048,-1.20186 -2.8e-4,-0.17383 4.6814,-0.24421 10.40373,-0.15639 8.18876,0.12567 10.37534,0.0266 10.26854,-0.46546 -0.2164,-0.9969 1.52614,-1.0911 2.94815,-0.15936 l 1.30322,0.8539 -1.13495,0.91902 c -1.08107,0.8754 -2.55944,1.19934 -3.08319,0.67559 z m 18.59939,-1.68928 c -0.58625,-0.58624 -0.032,-0.87166 1.64405,-0.84659 1.02062,0.0153 4.02681,-0.0212 6.68042,-0.081 4.45859,-0.10051 4.82474,-0.18387 4.82474,-1.09845 0,-0.544336 0.32354,-0.989696 0.71898,-0.989696 1.40912,0 3.23978,1.163346 3.23978,2.058816 0,0.50064 -0.16701,0.91275 -0.37113,0.91579 -0.20413,0.003 -4.00581,0.0611 -8.44819,0.12913 -4.44237,0.068 -8.17227,0.0284 -8.28865,-0.088 z m 16.11828,-0.9834 c 0,-0.24305 -0.35223,-0.57707 -0.78274,-0.74227 -1.21053,-0.46453 -1.37047,-0.36381 -0.70179,0.4419 0.68271,0.82262 1.48453,0.98485 1.48453,0.30037 z m -75.07403,0.21692 c -2.44735,-1.07959 -5.65137,-4.610426 -7.65462,-8.435386 -2.55896,-4.88605 -3.95197,-11.88533 -4.23849,-21.29663 -0.1823,-5.9879 -0.0766,-7.80032 0.54092,-9.27835 0.42211,-1.01025 1.00152,-1.83683 1.28757,-1.83683 0.63672,0 0.65155,-0.15882 -0.2079,2.22681 -1.59744,4.43407 -0.29168,20.16881 2.23805,26.96907 1.40089,3.7658 4.28134,7.85724 6.74381,9.57902 1.38559,0.968816 2.88959,1.525096 4.55645,1.685256 1.36848,0.13149 2.86574,0.0942 3.32724,-0.0829 0.76913,-0.29515 0.76062,-0.37938 -0.10206,-1.01019 -0.51763,-0.378506 -0.77085,-0.858496 -0.5627,-1.066646 0.50156,-0.50156 3.08391,1.449766 3.08391,2.330326 0,0.99195 -6.87962,1.15719 -9.01218,0.21646 z m 13.49481,-8.626106 c -0.93175,-1.80181 -0.98441,-2.58141 -0.15274,-2.26099 0.48053,0.18514 0.58498,-1.25385 0.46807,-6.44852 -0.0876,-3.89106 0.0416,-6.68683 0.30881,-6.68683 0.25261,0 0.59252,3.17319 0.75536,7.05154 0.16284,3.87835 0.3579,7.58571 0.43346,8.23858 0.20313,1.75492 -0.92616,1.82108 -1.81296,0.10622 z m 37.44953,0.315 c -0.27406,-0.34021 -0.65308,-1.34246 -0.84226,-2.22722 -0.25314,-1.18384 -0.15512,-1.68112 0.37117,-1.88308 0.58677,-0.22516 0.67029,-1.29114 0.46523,-5.93774 -0.20484,-4.64181 -0.12503,-5.6633 0.44244,-5.6633 0.42082,0 0.69981,0.53373 0.71134,1.36082 0.1477,10.59958 0.2227,11.47263 0.96115,11.18926 0.40825,-0.15666 0.74144,-0.094 0.74042,0.13924 -0.002,0.49142 -1.86806,3.64057 -2.15709,3.64057 -0.10676,0 -0.41834,-0.27835 -0.6924,-0.61855 z m 29.84847,-2.46063 c -0.97881,-1.39745 -0.98311,-2.05681 -0.011,-1.68377 0.6623,0.25415 0.74136,-0.50822 0.61856,-5.96458 -0.10501,-4.66633 0.0164,-6.30914 0.47776,-6.46525 0.47469,-0.1606 0.61856,1.34841 0.61856,6.48778 0,5.85383 0.10904,6.76132 0.86598,7.20744 0.75528,0.44514 0.77109,0.57383 0.12371,1.0067 -1.14489,0.76554 -1.85375,0.61072 -2.69359,-0.58832 z m -36.85735,-0.81884 c -0.66023,-0.18451 -1.29895,-0.63104 -1.41937,-0.9923 -0.15433,-0.46299 0.0904,-0.56849 0.82929,-0.35748 0.57653,0.16464 1.48004,0.42139 2.00779,0.57055 1.06173,0.30008 2.00952,-0.97946 2.00952,-2.7129 0,-1.20349 -0.62089,-1.32058 -1.48453,-0.27995 -0.70968,0.85511 -2.26666,0.98362 -2.73505,0.22575 -0.41812,-0.67654 0.57655,-1.83967 2.36342,-2.76369 1.11516,-0.57668 1.58894,-0.61083 2.13913,-0.15421 0.94645,0.78548 0.90665,4.41331 -0.0636,5.79854 -0.78682,1.12333 -1.52603,1.25827 -3.6466,0.66569 z m 1.66614,-4.77751 c 0.52831,-0.39959 0.73788,-0.72653 0.46572,-0.72653 -0.27217,0 -0.9271,0.32694 -1.45541,0.72653 -0.52831,0.39959 -0.73788,0.72653 -0.46571,0.72653 0.27216,0 0.92709,-0.32694 1.4554,-0.72653 z m -41.29045,4.25113 c 0,-0.2561 0.22268,-0.60327 0.49484,-0.77147 0.27217,-0.16821 0.49485,-0.81851 0.49485,-1.44513 0,-0.9484 -0.20727,-1.09966 -1.23712,-0.90279 -0.68041,0.13007 -1.23711,0.44635 -1.23711,0.70285 0,0.2565 -0.22268,0.32874 -0.49485,0.16053 -0.27216,-0.16821 -0.49484,-0.62408 -0.49484,-1.01305 0,-0.44243 0.74108,-0.82572 1.97938,-1.02373 1.89348,-0.30278 1.97938,-0.39557 1.97938,-2.13807 0,-2.04006 1.03543,-3.83123 1.90432,-3.29423 0.8072,0.49888 0.70733,1.64044 -0.29141,3.33118 -0.75507,1.27823 -0.77033,1.51768 -0.12372,1.94108 0.64002,0.41906 0.62303,0.5505 -0.12836,0.99335 -0.47629,0.28071 -0.86598,1.01148 -0.86598,1.62394 0,1.1048 -0.82326,2.30118 -1.58351,2.30118 -0.21773,0 -0.39587,-0.20954 -0.39587,-0.46564 z m 82.15464,-1.63745 c 0.006,-0.61237 0.31557,-2.56083 0.68868,-4.3299 0.3731,-1.76907 0.58751,-3.36812 0.47646,-3.55344 -0.11105,-0.18531 0.026,-0.47778 0.3045,-0.64992 1.23181,-0.7613 1.08627,2.44267 -0.29481,6.49016 -0.24895,0.72958 -0.13832,0.69004 0.51398,-0.18371 0.45717,-0.61237 1.11687,-1.1134 1.466,-1.1134 0.34913,0 0.88842,0.5567 1.19845,1.23711 0.31001,0.68042 0.79111,1.23712 1.06911,1.23712 0.278,0 0.50546,0.22268 0.50546,0.49484 0,0.88198 -1.43445,0.52337 -1.97938,-0.49484 -0.29132,-0.54433 -0.6965,-0.98969 -0.90041,-0.98969 -0.20391,0 -0.76537,0.66804 -1.24768,1.48453 -0.48232,0.8165 -1.08703,1.48454 -1.34381,1.48454 -0.25677,0 -0.46222,-0.50103 -0.45655,-1.1134 z M 38.364827,81.696974 c 0.0861,-0.68888 0.37926,-1.22331 0.65143,-1.18763 0.27216,0.0357 0.43917,0.26528 0.37113,0.51023 -0.18003,0.64812 0.2448,0.55095 1.66789,-0.38149 0.7183,-0.47065 1.40363,-0.63053 1.59084,-0.37114 0.1809,0.25065 0.86705,0.45572 1.52478,0.45572 1.53581,0 1.94704,1.11838 0.43666,1.18754 -2.97171,0.13607 -4.30227,0.32755 -4.64285,0.66813 -0.20412,0.20412 -0.68283,0.37113 -1.06379,0.37113 -0.45246,0 -0.63837,-0.43435 -0.53609,-1.25249 z m -37.3557258,0.2628 c -0.63762698,-1.83647 -0.73774098,-3.93767 -0.28386298,-5.95773 0.33995998,-1.51306 0.33029498,-2.24224 -0.03132,-2.36277 -0.96874799,-0.32292 -0.53317,-1.19964 0.46617398,-0.93831 0.544059,0.14228 1.113902,0.0569 1.266317,-0.1897 0.152416,-0.24662 0.709339,-0.44839 1.237607,-0.44839 1.400773,0 1.241243,2.10403 -0.268078,3.53569 -0.886374,0.84076 -1.240633,1.71665 -1.271894,3.14472 -0.02383,1.08866 -0.226457,2.42474 -0.45028,2.96907 -0.322812,0.78507 -0.460234,0.83623 -0.664666,0.24742 z m 2.325348,-7.71057 c 0.464524,-1.21053 0.363809,-1.37048 -0.441903,-0.7018 -0.822619,0.68272 -0.984851,1.48454 -0.300365,1.48454 0.243046,0 0.577067,-0.35223 0.742268,-0.78274 z m 183.8879808,5.93422 c 0,-0.51939 2.20567,-2.14899 2.93162,-2.16595 0.48223,-0.0113 0.33779,0.37422 -0.45739,1.22065 -1.05716,1.1253 -2.47423,1.6667 -2.47423,0.9453 z m -1.17128,-0.59136 c -0.16348,-0.26451 0.85274,-1.55658 2.25825,-2.87127 1.59786,-1.49461 2.63406,-2.15461 2.76518,-1.76125 0.11534,0.346 0.1267,0.67085 0.0252,0.72188 -0.10145,0.051 -1.21203,1.06001 -2.46796,2.24217 -1.25592,1.18216 -2.41724,1.93297 -2.58071,1.66847 z M 52.239767,78.715224 c -1.18147,-0.82753 -1.39501,-2.34755 -0.6172,-4.39334 0.43069,-1.1328 0.75318,-1.26932 2.99828,-1.26932 1.5511,0 2.39841,0.18973 2.20984,0.49484 -0.16821,0.27217 -0.83118,0.49485 -1.47327,0.49485 -0.64209,0 -1.51967,0.13516 -1.95017,0.30036 -1.37068,0.52598 -0.84309,1.18417 0.94921,1.18417 0.95258,0 1.73196,0.22268 1.73196,0.49485 0,0.27216 -0.89072,0.49484 -1.97938,0.49484 -1.36199,0 -1.97938,0.21501 -1.97938,0.68933 0,1.01815 1.25241,1.31949 2.98039,0.71711 2.18716,-0.76244 2.46291,-0.0782 0.32798,0.81387 -0.98562,0.41182 -1.86099,0.74877 -1.94526,0.74877 -0.0843,0 -0.64812,-0.34665 -1.253,-0.77033 z m -29.91017,-1.23487 c -0.12192,-0.83069 0.0186,-2.27812 0.31234,-3.2165 0.45799,-1.46325 0.75242,-1.70614 2.06819,-1.70614 1.88573,0 3.39351,1.49193 2.94284,2.91188 -0.4148,1.30691 -3.05977,3.52111 -4.20614,3.52111 -0.62015,0 -0.96373,-0.46447 -1.11723,-1.51035 z m 3.24864,-0.8833 c 0.86133,-0.89903 1.23152,-1.6999 1.02933,-2.22681 -0.31933,-0.83215 -1.93568,-1.13861 -2.36254,-0.44793 -0.52531,0.84996 -0.89674,4.0787 -0.46921,4.0787 0.25154,0 1.06263,-0.63178 1.80242,-1.40396 z m 21.60297,0.41427 c 0,-0.27216 0.19885,-0.49485 0.4419,-0.49485 0.24305,0 0.58091,-0.36224 0.75081,-0.80499 0.36194,-0.9432 -0.58677,-2.29114 -1.30161,-1.84935 -0.29991,0.18535 -0.2354,0.46218 0.16545,0.70991 0.36138,0.22335 0.54394,0.5192 0.40568,0.65746 -0.41571,0.41571 -13.4885,0.51366 -14.68904,0.11006 -2.55604,-0.85931 -0.70853,-1.14777 5.84238,-0.91218 6.69133,0.24064 6.98399,0.20985 7.69816,-0.80976 0.40831,-0.58295 0.94731,-1.05991 1.19776,-1.05991 0.25046,0 0.82015,0.5567 1.26597,1.23712 0.75089,1.14599 0.75089,1.32822 0,2.47422 -0.81984,1.25124 -1.77746,1.65114 -1.77746,0.74227 z m -29.195879,-2.37526 c 0,-0.21773 0.23667,-0.63255 0.52594,-0.92181 0.37135,-0.37136 -0.18441,-0.62017 -1.89086,-0.84654 -4.117726,-0.54624 -9.4715442,-4.75382 -11.7535008,-9.23711 -1.541305,-3.02816 -2.221783,-7.06191 -2.221783,-13.17033 0,-5.04376 1.228988,-12.54173 2.055709,-12.54173 0.586547,0 0.497078,1.26059 -0.333648,4.70103 -0.948959,3.93009 -0.928634,12.30255 0.04021,16.56221 0.946434,4.16115 3.4560536,7.92836 6.8184138,10.23518 2.996269,2.05564 6.028079,3.03174 7.180789,2.31186 0.51904,-0.32415 1.270909,-0.35326 2.014969,-0.078 l 1.18696,0.43908 -1.40933,1.47103 c -1.388919,1.44971 -2.213859,1.85034 -2.213859,1.07514 z m 183.587622,-4.35247 c 0,-0.43428 0.45944,-1.43482 1.02098,-2.22343 0.56154,-0.78861 0.86235,-1.69051 0.66846,-2.00423 -0.24451,-0.39563 0.0112,-0.48139 0.83469,-0.2799 0.68864,0.1685 1.59059,-0.009 2.14777,-0.42267 0.5283,-0.39225 1.14067,-0.71317 1.36082,-0.71317 0.22015,0 0.40027,1.06886 0.40027,2.37525 0,1.3064 0.2635,2.63877 0.58556,2.96083 0.32207,0.32206 0.43879,0.73235 0.25938,0.91175 -0.4317,0.4317 -1.83464,-0.75452 -1.83464,-1.55123 0,-0.34403 -0.698,-0.72796 -1.55112,-0.85317 -1.30381,-0.19136 -1.6786,-0.004 -2.35052,1.17782 -0.88842,1.56202 -1.54165,1.82563 -1.54165,0.62215 z m 5.44329,-3.47719 c 0,-0.65755 -0.13434,-0.69136 -0.74226,-0.18683 -0.40825,0.33881 -0.74227,0.7001 -0.74227,0.80285 0,0.10276 0.33402,0.18684 0.74227,0.18684 0.40824,0 0.74226,-0.36129 0.74226,-0.80286 z m 33.64949,2.28739 c 0,-0.27216 0.61237,-0.52517 1.36082,-0.56223 1.23016,-0.0609 1.24973,-0.0885 0.20385,-0.28755 -0.94455,-0.17974 -1.10182,-0.43993 -0.85655,-1.41715 0.44292,-1.76473 -0.0923,-1.45474 -0.92365,0.53498 -0.39802,0.95257 -0.95771,1.73195 -1.24376,1.73195 -0.67308,0 -0.6612,-0.12216 0.22821,-2.34501 0.57249,-1.4308 1.15704,-1.99814 2.488,-2.41472 0.95682,-0.29948 1.8418,-0.37929 1.9666,-0.17736 0.1248,0.20194 -0.20357,0.91444 -0.72973,1.58333 l -0.95664,1.21617 1.73203,0.82595 c 0.95262,0.45427 1.59568,1.04657 1.42902,1.31622 -0.397,0.64237 -4.6982,0.63818 -4.6982,-0.005 z m -28.70103,-0.49484 c -0.40825,-0.26383 -0.51959,-0.49885 -0.24742,-0.52227 0.27216,-0.0234 5.17113,-0.0221 10.88659,0.003 6.33549,0.0277 10.68149,-0.15177 11.13402,-0.45986 0.62304,-0.42418 0.56342,-0.55437 -0.37113,-0.81048 -1.11626,-0.3059 -1.38264,-0.7452 -0.80324,-1.3246 0.37868,-0.37867 3.15375,0.99908 3.15375,1.56576 0,0.223 -0.40722,0.77398 -0.90494,1.22441 -0.78337,0.70894 -2.32901,0.81795 -11.50515,0.81139 -5.98895,-0.004 -10.92311,-0.2163 -11.34248,-0.48732 z m 52.94845,-0.0325 c 0,-0.35171 -2.34837,-0.5047 -7.05155,-0.45939 -8.74946,0.0843 -8.7835,0.0828 -8.7835,-0.39487 0,-0.21554 3.50596,-0.45552 7.79103,-0.5333 7.23802,-0.13137 9.21012,-0.36674 7.67289,-0.91575 -0.85579,-0.30565 -0.77829,-1.12815 0.1063,-1.12815 0.39867,0 0.95877,0.43707 1.24466,0.97127 0.30555,0.57091 0.82265,0.85505 1.25452,0.68932 0.4041,-0.15506 0.73472,-0.0504 0.73472,0.2325 0,0.28295 -0.44536,0.6558 -0.98969,0.82856 -0.54433,0.17277 -0.98969,0.52179 -0.98969,0.77562 0,0.25382 -0.22268,0.4615 -0.49484,0.4615 -0.27217,0 -0.49485,-0.2373 -0.49485,-0.52733 z m 7.53563,-0.0814 c -1.37935,-0.66477 -1.90829,-2.52169 -1.17605,-4.12877 0.39693,-0.87116 0.94279,-1.20062 1.98924,-1.20062 1.4146,0 2.35408,1.07559 1.76791,2.02403 -0.46382,0.75048 -1.33579,0.50335 -1.03056,-0.29207 0.3417,-0.89048 -0.7216,-0.99138 -1.56452,-0.14846 -0.89164,0.89164 -0.7154,2.27537 0.36334,2.8527 0.52644,0.28174 1.6267,0.51225 2.44503,0.51225 0.81832,0 1.62548,0.22268 1.79369,0.49485 0.41348,0.66902 -3.14692,0.58063 -4.58808,-0.11391 z m 70.98091,0.27994 c -0.18204,-0.18206 -0.33097,-0.98048 -0.33097,-1.7743 0,-0.9457 0.21325,-1.3651 0.61855,-1.21649 0.34021,0.12474 0.56289,0.47732 0.49485,0.7835 -0.19416,0.87369 0.62541,0.65304 1.60824,-0.43299 1.07019,-1.18254 1.73196,-1.27042 1.73196,-0.23001 0,0.59773 0.20405,0.65048 0.95716,0.24742 0.52644,-0.28174 1.07531,-0.51225 1.2197,-0.51225 0.1444,0 0.51704,0.47552 0.82808,1.05671 0.51506,0.96239 0.46141,1.03124 -0.60115,0.77136 -0.66289,-0.16212 -1.5765,0.019 -2.11577,0.41945 -0.7107,0.52776 -1.11698,0.56544 -1.61752,0.15003 -0.50491,-0.41905 -0.88785,-0.3562 -1.5653,0.25688 -0.49327,0.44641 -1.04579,0.66271 -1.22783,0.48067 z M 58.246757,67.361584 c -0.37385,-0.97421 0.1764,-2.37142 0.78563,-1.9949 0.2622,0.16205 0.35129,0.62152 0.19797,1.02106 -0.43011,1.12085 1.67438,0.90824 2.28395,-0.23074 0.28174,-0.52644 0.51226,-1.53827 0.51226,-2.2485 0,-0.95534 -0.22533,-1.25351 -0.86598,-1.14594 -0.60792,0.10208 -0.90418,-0.22325 -0.99417,-1.0917 -0.0705,-0.68042 0.0902,-1.57114 0.35704,-1.97939 0.37558,-0.57451 0.6841,-0.61826 1.36513,-0.1936 0.64969,0.40512 0.9136,1.29978 1.00872,3.41954 0.16068,3.58103 -0.72988,5.18644 -2.87706,5.18644 -0.86676,0 -1.60765,-0.31009 -1.77349,-0.74227 z m 3.77981,-6.70962 c 0,-0.2561 -0.22268,-0.46564 -0.49485,-0.46564 -0.27216,0 -0.49484,0.34716 -0.49484,0.77147 0,0.42431 0.22268,0.63385 0.49484,0.46564 0.27217,-0.1682 0.49485,-0.51537 0.49485,-0.77147 z m 241.016343,6.21477 c -0.788,-1.84045 -0.80479,-5.22648 -0.0331,-6.66847 0.4812,-0.89912 0.42597,-1.20725 -0.32562,-1.81692 -0.84454,-0.68505 -0.81325,-0.71989 0.46754,-0.52065 0.75494,0.11744 1.4918,0.0207 1.63744,-0.21496 0.14566,-0.23567 0.69704,-0.42848 1.22531,-0.42848 1.39042,0 1.25217,2.22753 -0.23025,3.70995 -0.84879,0.84879 -1.32212,2.08576 -1.64824,4.3074 -0.45539,3.10223 -0.46045,3.10979 -1.09312,1.63213 z m 2.9424,-8.32011 c 0,-0.25348 -0.33402,-0.18365 -0.74226,0.15516 -0.40825,0.33882 -0.73519,0.97846 -0.72654,1.42142 0.0132,0.67661 0.13191,0.6518 0.74227,-0.15517 0.3996,-0.52831 0.72653,-1.16794 0.72653,-1.42141 z m -283.284433,7.60593 c -0.47529,-0.91912 -0.57092,-1.56908 -0.2592,-1.76174 0.27168,-0.1679 0.71071,0.26482 0.97563,0.96161 0.26492,0.69679 0.69622,1.26689 0.95844,1.26689 0.73917,0 1.19411,-4.2079 0.83446,-7.71824 -0.19806,-1.93319 -0.13814,-3.16836 0.1537,-3.16836 0.53132,0 0.92441,2.53214 1.16309,7.49213 0.13097,2.72166 0.007,3.38024 -0.72114,3.83505 -1.43154,0.89401 -2.30553,0.63861 -3.10498,-0.90734 z m 30.51885,-0.15456 c -0.75399,-0.9085 -1.28126,-3.33744 -0.72449,-3.33744 0.26008,0 0.71451,0.50103 1.00985,1.1134 0.42734,0.88609 0.54381,0.12839 0.57046,-3.71134 0.0199,-2.86427 0.23457,-4.82474 0.52834,-4.82474 0.2968,0 0.49484,1.9742 0.49484,4.93292 0,4.18151 0.11307,4.88953 0.74227,4.64809 0.88975,-0.34143 0.97813,0.37694 0.14845,1.20662 -0.77196,0.77196 -2.11731,0.7586 -2.76972,-0.0275 z m -38.203469,-2.06852 c 0,-1.63268 -0.09952,-1.75765 -1.183129,-1.48568 -0.650721,0.16332 -1.320705,0.0743 -1.488854,-0.19773 -0.168149,-0.27207 0.308588,-0.6364 1.059417,-0.80962 1.074376,-0.24786 1.649146,-0.94153 2.698506,-3.25676 1.3165,-2.90459 2.58311,-3.77773 3.18914,-2.19844 0.443589,1.15597 -0.25161,3.21539 -1.08542,3.21539 -0.60366,0 -0.64389,-0.19875 -0.20591,-1.01713 0.2994,-0.55941 0.44459,-1.28312 0.32266,-1.60824 -0.12193,-0.32512 -0.67945,0.40454 -1.23892,1.62146 -0.73605,1.60096 -0.87207,2.3875 -0.49208,2.84536 0.37682,0.45405 0.35734,0.63278 -0.069,0.63278 -0.38355,0 -0.53657,0.64116 -0.43173,1.80892 0.10149,1.13034 -0.0696,1.88834 -0.45614,2.02062 -0.41955,0.14358 -0.61856,-0.36183 -0.61856,-1.57093 z m 175.917512,1.2053 c -0.3451,-0.55838 -0.0407,-0.64721 1.73196,-0.50549 1.19595,0.0956 1.17948,0.0469 -0.49485,-1.4655 -1.67169,-1.50997 -1.69853,-1.58898 -0.7714,-2.27093 1.68943,-1.24264 4.37735,-0.65281 3.49932,0.76787 -0.18929,0.30628 -0.64717,0.26763 -1.24382,-0.10497 -1.54036,-0.96198 -1.84822,0.11054 -0.37069,1.29145 0.74845,0.5982 1.36082,1.3338 1.36082,1.63467 0,1.05316 -3.12427,1.60279 -3.71134,0.6529 z m 30.39533,-0.49484 c -0.19035,-3.56555 -0.14714,-4.22415 0.28541,-4.3495 0.27199,-0.0788 0.56568,0.31087 0.65265,0.86598 0.087,0.55511 0.44939,1.00929 0.80539,1.00929 0.35599,0 0.95287,0.37096 1.3264,0.82435 0.61226,0.74316 0.54512,0.79097 -0.68167,0.48542 -1.55671,-0.38772 -1.88971,0.43506 -0.37114,0.91704 1.50943,0.47907 1.17907,1.21052 -0.49386,1.09348 -0.92113,-0.0644 -1.49857,-0.38519 -1.52318,-0.84606 z m 32.03421,0.1615 c -0.18452,-0.18453 0.12337,-0.82395 0.68421,-1.42094 0.56085,-0.59699 1.1874,-1.7124 1.39234,-2.47869 0.20493,-0.7663 0.66288,-1.49002 1.01766,-1.60827 0.49565,-0.16522 0.56545,0.25617 0.30134,1.81939 -0.32174,1.9044 -0.254,2.07194 1.05993,2.62163 1.35911,0.56859 1.36745,0.59347 0.263,0.78429 -0.62735,0.10838 -1.46658,-0.0734 -1.86495,-0.40407 -0.5774,-0.47919 -0.90623,-0.43649 -1.62117,0.21052 -0.49327,0.44641 -1.04783,0.66067 -1.23236,0.47614 z m 72.41582,-2.60652 c 0,-1.34476 0.21296,-2.57664 0.47323,-2.7375 0.26028,-0.16086 0.3478,-0.61937 0.19448,-1.0189 -0.2167,-0.56471 0.1658,-0.72642 1.71822,-0.72642 2.99739,0 4.47979,2.0171 2.91792,3.97039 -1.09873,1.37408 -3.44419,2.95745 -4.3809,2.95745 -0.77618,0 -0.92295,-0.38883 -0.92295,-2.44502 z m 4.40576,-1.17692 c 0.76019,-1.42043 0.39594,-2.31621 -0.94184,-2.31621 -1.14336,0 -1.54953,0.6184 -1.99066,3.03074 l -0.34194,1.86989 1.30751,-0.67614 c 0.71913,-0.37187 1.60425,-1.2306 1.96693,-1.90828 z m 26.81231,2.71225 c -0.26777,-0.50033 -0.40036,-1.33538 -0.29464,-1.85567 0.8032,-3.953 0.53034,-3.66763 3.50695,-3.66763 1.70161,0 2.62542,0.18769 2.4356,0.49484 -0.16821,0.27217 -0.94252,0.49485 -1.72069,0.49485 -1.64642,0 -2.98034,0.43835 -2.98034,0.97939 0,0.20826 0.94639,0.55804 2.10309,0.77729 l 2.10309,0.39864 -2.18838,0.28316 c -2.28343,0.29547 -3.2122,1.2829 -1.73856,1.84839 0.47102,0.18075 1.53258,0.0734 2.35903,-0.23856 1.80449,-0.68112 2.43672,-0.28322 1.10142,0.69318 -1.39659,1.02121 -4.09278,0.90162 -4.68657,-0.20788 z m -154.55827,-0.36304 c -0.74846,-0.40605 -1.36083,-0.95383 -1.36083,-1.21731 0,-0.6109 0.3269,-0.60374 1.51707,0.0332 0.6656,0.35623 0.95716,0.353 0.95716,-0.0106 0,-0.28757 -0.5567,-0.77651 -1.23712,-1.08652 -0.68041,-0.31002 -1.23711,-0.74164 -1.23711,-0.95917 0,-0.21752 0.65747,-0.34878 1.46104,-0.2917 1.10816,0.0787 1.53215,0.40259 1.75546,1.3409 0.16193,0.68042 0.41019,1.62681 0.55169,2.1031 0.31522,1.06107 -0.55517,1.09293 -2.40736,0.0881 z m 150.06185,-0.95314 c 0,-0.17548 0.33358,-0.65263 0.74129,-1.06034 1.06649,-1.06649 0.14742,-2.64414 -1.35337,-2.32315 -1.09592,0.23438 -1.09913,0.2227 -0.1502,-0.54615 0.53332,-0.43212 1.20136,-0.70941 1.48453,-0.61621 0.91094,0.29983 1.68479,2.4134 1.28258,3.50305 -0.34864,0.94455 -2.00483,1.806 -2.00483,1.0428 z m -14.31118,-1.64243 c -0.93095,-0.18584 -1.79375,-0.64384 -1.91736,-1.01779 -0.17792,-0.53827 0.17467,-0.60324 1.69263,-0.3119 1.05454,0.20239 4.73122,0.32167 8.1704,0.26505 4.0797,-0.0672 6.36875,0.0842 6.58591,0.43561 0.22387,0.36223 -0.52731,0.53953 -2.29429,0.54153 -1.44493,10e-4 -4.40859,0.098 -6.58591,0.21418 -2.17732,0.11616 -4.72044,0.0592 -5.65138,-0.12668 z m -17.02141,-0.41274 c -0.18682,-0.18682 9.9e-4,-0.7163 0.41775,-1.17663 0.69847,-0.7718 0.58288,-0.86087 -1.48504,-1.1443 -2.96476,-0.40637 -5.4389,-1.71894 -8.60377,-4.56442 -2.89754,-2.60514 -5.08928,-6.47914 -5.94468,-10.50746 -0.84376,-3.97355 -0.69449,-13.56036 0.2847,-18.28492 0.5773,-2.78542 1.06802,-4.08247 1.54455,-4.08247 0.48896,0 0.60271,0.33392 0.37927,1.1134 -1.7737,6.18778 -1.8873,7.16405 -1.65452,14.21773 0.19705,5.97074 0.43,7.6717 1.37901,10.0695 1.33728,3.37881 4.63919,7.2502 7.72722,9.0599 2.68375,1.57279 6.13032,2.43556 6.61254,1.65532 0.3512,-0.56825 2.96422,-0.16338 2.96422,0.45928 0,0.6423 -3.27952,3.52679 -3.62125,3.18507 z M 198.3281,58.494824 c -0.52788,-0.386 -0.84879,-0.8054 -0.71314,-0.93201 0.40082,-0.37411 2.47345,0.56693 2.47345,1.12303 0,0.70648 -0.62577,0.63858 -1.76031,-0.19102 z m 73.01804,-1.03015 c -0.68041,-0.38896 -1.96082,-0.71509 -2.84536,-0.72473 -0.88454,-0.01 -1.60825,-0.24022 -1.60825,-0.51239 0,-0.27216 0.77938,-0.49484 1.73196,-0.49484 0.95258,0 1.72701,-0.16701 1.72095,-0.37114 -0.0249,-0.83921 -1.88264,-2.60126 -4.4426,-4.21372 -4.71871,-2.9722 -8.47069,-4.64824 -15.34673,-6.85552 l -6.67389,-2.14239 -7.91752,-0.007 c -5.73745,-0.005 -8.87131,0.2221 -11.38145,0.82536 -1.90515,0.45786 -7.13814,1.19171 -11.62886,1.63078 -7.01799,0.68616 -8.58032,0.99879 -11.12186,2.22561 -1.62631,0.78502 -3.04979,1.33444 -3.1633,1.22093 -0.45435,-0.45435 1.08496,-1.66207 3.37284,-2.64629 1.6381,-0.70469 4.38475,-1.20952 8.5205,-1.56607 3.35674,-0.28939 9.48711,-1.07058 13.62305,-1.73597 8.6271,-1.38794 14.08583,-1.51844 20.04524,-0.4792 5.98085,1.04297 13.67462,3.86046 19.28551,7.06244 5.48001,3.12728 7.82977,5.1712 7.82977,6.81066 0,0.619 0.32081,1.24856 0.71291,1.39902 0.51107,0.19612 0.76274,-0.17419 0.88888,-1.30788 l 0.17596,-1.58145 0.61586,1.44616 c 0.67951,1.59565 0.4559,2.76955 -0.52241,2.74249 -0.34875,-0.01 -1.19079,-0.33577 -1.8712,-0.72473 z m -76.60206,-0.84124 c -0.3266,-0.3266 -0.59381,-0.41067 -0.59381,-0.18683 0,0.22384 -0.33402,0.12977 -0.74227,-0.20905 -0.40825,-0.33881 -0.74227,-0.81144 -0.74227,-1.05028 0,-0.79614 1.22045,-0.443 2.72165,0.78752 0.98323,0.80595 1.22553,1.22287 0.71752,1.23466 -0.42185,0.01 -1.03422,-0.24942 -1.36082,-0.57602 z m -8.16764,-1.9354 c -0.49138,-0.28586 -1.09824,-1.05847 -1.34858,-1.71691 -0.25033,-0.65845 -0.67076,-1.19717 -0.93428,-1.19717 -0.26351,0 -0.87373,0.66804 -1.35605,1.48453 -0.92388,1.56401 -1.65324,1.92953 -1.65324,0.82853 0,-0.36081 0.5567,-1.179 1.23711,-1.81822 1.38519,-1.30131 1.61902,-2.85358 0.49485,-3.28497 -0.40825,-0.15666 -0.74227,-0.48369 -0.74227,-0.72673 0,-0.71461 1.30985,-0.50638 1.99306,0.31684 0.55978,0.67449 0.74865,0.64702 1.70073,-0.24742 0.58906,-0.55339 1.22368,-1.00617 1.41026,-1.00617 0.75441,0 0.26312,1.10264 -0.96008,2.1548 -1.2785,1.09971 -1.28602,1.14338 -0.46898,2.72337 0.4567,0.88315 1.15274,1.72944 1.54676,1.88064 0.73809,0.28323 1.00593,1.17045 0.34526,1.14367 -0.20413,-0.008 -0.77317,-0.24894 -1.26455,-0.53479 z m 45.67692,-0.90101 c 0,-0.25363 0.66804,-0.93683 1.48453,-1.51823 1.72783,-1.23032 2.03994,-0.37455 0.37114,1.01762 -1.23521,1.03045 -1.85567,1.19783 -1.85567,0.50061 z m -1.97938,-0.48648 c 0,-0.85397 4.5925,-4.49568 5.63668,-4.46971 0.99193,0.0247 0.98256,0.0676 -0.18894,0.86598 -0.67797,0.46201 -2.04104,1.56373 -3.02905,2.44827 -1.8586,1.66395 -2.41869,1.93152 -2.41869,1.15546 z m 133.78719,-1.27917 c -0.36128,-0.94146 0.11698,-2.22681 0.82856,-2.22681 0.31853,0 0.41362,0.4099 0.2296,0.9897 -0.25766,0.81182 -0.0889,0.98969 0.93894,0.98969 1.40874,0 2.27756,-1.22731 2.27756,-3.21731 0,-1.07045 -0.17369,-1.24787 -0.97321,-0.99411 -0.74886,0.23768 -1.04374,0.0278 -1.27919,-0.91026 -0.38866,-1.54853 0.57755,-3.39991 1.66507,-3.19048 0.60706,0.11691 0.94124,0.9534 1.24242,3.10997 0.32195,2.30528 0.24306,3.30431 -0.36097,4.57096 -0.65877,1.38146 -1.03229,1.62092 -2.52845,1.62092 -1.10395,0 -1.86121,-0.27549 -2.04033,-0.74227 z m 3.81693,-6.8165 c -0.0612,-0.59168 -0.73994,-0.47709 -0.95258,0.16083 -0.10887,0.3266 0.0693,0.50474 0.39588,0.39587 0.32659,-0.10886 0.57711,-0.35938 0.5567,-0.5567 z m -41.32865,5.96412 c -0.81114,-1.15807 -1.03958,-2.85896 -0.38397,-2.85896 0.2125,0 0.63852,0.66804 0.94671,1.48453 1.10501,2.92751 1.54983,1.57848 1.46857,-4.45382 -0.0508,-3.77319 0.10044,-5.87855 0.41486,-5.77432 0.27217,0.0902 0.5591,2.36032 0.63764,5.04466 0.0818,2.79595 0.39086,5.17955 0.72358,5.58045 0.45789,0.55172 0.38148,0.84557 -0.36108,1.38854 -1.35792,0.99294 -2.56363,0.84912 -3.44631,-0.41108 z M 25.408007,50.343024 c 0,-1.44286 -0.075,-1.49856 -1.60825,-1.19494 -0.88453,0.17515 -1.87951,0.67061 -2.21106,1.10103 -0.5281,0.68557 -0.60477,0.64604 -0.61856,-0.31887 -0.009,-0.6058 0.41148,-1.80394 0.93363,-2.66255 0.52215,-0.85861 0.82069,-1.89644 0.66341,-2.30629 -0.19072,-0.49702 -0.0537,-0.66089 0.41146,-0.49209 0.38358,0.1392 0.63444,0.52551 0.55748,0.85847 -0.077,0.33296 0.45409,0.13811 1.18013,-0.43299 0.72604,-0.5711 1.5331,-1.03837 1.79346,-1.03837 0.70242,0 0.20252,7.56526 -0.51572,7.80467 -0.36625,0.12209 -0.58598,-0.37216 -0.58598,-1.31807 z m 0.41011,-2.77299 c 0.0906,-0.0906 0.091,-0.64665 10e-4,-1.23567 -0.15502,-1.01402 -0.24265,-0.98641 -1.64826,0.51945 l -1.48454,1.5904 1.48352,-0.35473 c 0.81594,-0.19511 1.55765,-0.42886 1.64824,-0.51945 z m 21.36309,3.30333 c 0,-0.5281 -7.87372,-1.57149 -11.93238,-1.58122 -2.83211,-0.007 -5.00809,-0.57266 -4.38319,-1.13987 0.1282,-0.11637 2.90526,-0.0205 6.17124,0.21297 3.26598,0.2335 7.06664,0.50107 8.44592,0.59459 1.37928,0.0935 2.77103,0.33274 3.09279,0.53159 0.32175,0.19885 0.585,0.12997 0.585,-0.15307 0,-0.28304 -0.5567,-0.65434 -1.23711,-0.82512 -1.36164,-0.34174 -1.6915,-1.19289 -0.46232,-1.19289 1.11475,0 2.52651,0.84187 2.8573,1.70389 0.15654,0.40793 -0.0558,1.08216 -0.47198,1.49828 -0.79684,0.79685 -2.66527,1.04281 -2.66527,0.35085 z m 311.651623,-0.46024 c -0.93478,-1.08052 -1.43146,-3.0048 -0.86579,-3.35439 0.23369,-0.14443 0.78183,0.35638 1.21809,1.1129 l 0.7932,1.37551 -0.25092,-1.5504 c -0.34013,-2.10166 0.23602,-8.59393 0.76267,-8.59393 0.23269,0 0.42307,2.33116 0.42307,5.18035 0,4.40145 0.1116,5.13752 0.74227,4.89551 0.88974,-0.34143 0.97813,0.37694 0.14845,1.20662 -0.84821,0.84821 -2.10107,0.73344 -2.97104,-0.27217 z M 54.109037,50.289414 c 0,-0.27217 0.44536,-0.49485 0.98969,-0.49485 0.54433,0 0.98969,-0.22268 0.98969,-0.49484 0,-0.27217 -0.33402,-0.49485 -0.74226,-0.49485 -0.40825,0 -0.74227,-0.31019 -0.74227,-0.68932 0,-0.37913 0.33402,-0.8175 0.74227,-0.97416 0.40824,-0.15666 0.74226,-0.55332 0.74226,-0.88147 0,-0.32815 -0.5567,-0.0736 -1.23711,0.56557 -0.68041,0.63922 -1.23711,1.55561 -1.23711,2.03644 0,0.86818 -0.84983,1.73229 -1.2803,1.30182 -0.12362,-0.12362 0.0232,-1.38081 0.32619,-2.79375 0.43714,-2.03835 0.68569,-2.45715 1.20332,-2.02756 0.45143,0.37466 0.75114,0.3816 0.97305,0.0225 0.17637,-0.28538 0.7529,-0.51887 1.28117,-0.51887 0.62085,0 0.96048,0.33963 0.96048,0.96048 0,0.52827 -0.22268,1.09811 -0.49484,1.26632 -0.74789,0.46222 -0.59291,1.23711 0.24742,1.23711 0.89086,0 0.97412,1.05475 0.14846,1.88042 -0.71799,0.71798 -2.87011,0.79219 -2.87011,0.099 z m 264.197273,-0.37113 c -0.0276,-0.20413 -0.009,-1.10836 0.0405,-2.00941 0.0898,-1.62246 0.0735,-1.63506 -1.68183,-1.30575 -1.16957,0.21941 -1.77248,0.14546 -1.77248,-0.2174 0,-0.30246 0.42715,-0.54992 0.94922,-0.54992 1.5272,0 2.5147,-0.5424 2.5147,-1.38124 0,-1.20906 1.94159,-4.93136 2.73006,-5.23393 0.38787,-0.14884 1.04403,0.0682 1.45813,0.4823 0.67351,0.67351 0.67368,0.90615 0.001,2.20578 -0.41309,0.79908 -0.96814,1.45286 -1.23332,1.45286 -0.63011,0 -0.62143,-0.84519 0.0127,-1.23711 0.60171,-0.37188 0.66073,-1.73196 0.0752,-1.73196 -0.54159,0 -2.16437,3.58637 -2.03563,4.49877 0.26195,1.85657 -0.0751,5.39814 -0.51376,5.39814 -0.27216,0 -0.5174,-0.16701 -0.54498,-0.37113 z M 38.273987,42.291704 c 0,-1.59603 0.22146,-2.88889 0.49485,-2.88889 0.27216,0 0.49484,0.66804 0.49484,1.48454 0,1.32595 0.16171,1.48453 1.51374,1.48453 0.88315,0 1.38634,0.20614 1.20791,0.49485 -0.16821,0.27216 -0.86253,0.49484 -1.54294,0.49484 -0.69874,0 -1.10402,0.21536 -0.93129,0.49485 0.16821,0.27216 0.73805,0.49485 1.26632,0.49485 0.52827,0 0.96049,0.21589 0.96049,0.47977 0,0.26388 -0.77938,0.45048 -1.73196,0.41467 l -1.73196,-0.0651 z m 295.667923,-0.41816 c -0.37025,-0.59909 0.5533,-0.94813 2.18889,-0.82724 1.07119,0.0792 1.20124,-0.11503 1.23711,-1.8473 0.0629,-3.03798 1.0244,-2.62943 1.06975,0.45454 l 0.04,2.71834 h -2.11387 c -1.16262,0 -2.25246,-0.22425 -2.42186,-0.49834 z m -109.09943,-2.84186 c 0.006,-0.47629 0.21687,-1.75045 0.4675,-2.83147 0.25063,-1.08102 0.36204,-2.05914 0.24758,-2.17361 -0.11447,-0.11447 -0.53777,0.0655 -0.94067,0.39984 -0.91568,0.75995 -1.76559,0.27702 -1.76559,-1.00323 0,-0.95711 1.67656,-1.93792 3.31262,-1.93792 0.6561,0 0.72173,0.47101 0.43093,3.09278 -0.30296,2.7314 -0.26144,2.98284 0.35539,2.15184 0.38414,-0.51752 0.82373,-0.73822 0.97687,-0.49044 0.25643,0.41492 -2.26325,3.65819 -2.84203,3.65819 -0.13993,0 -0.24909,-0.38969 -0.2426,-0.86598 z M 49.656997,38.536834 c -9.9e-4,-0.3402 0.6108,-0.63613 1.35926,-0.65762 l 1.36082,-0.0391 -1.33242,-0.48755 c -0.75383,-0.27584 -1.87774,-1.41806 -2.58823,-2.63043 -1.61785,-2.76065 -3.76292,-4.54371 -7.46079,-6.20167 -3.94052,-1.76675 -12.64231,-3.18359 -17.26531,-2.81117 -1.93501,0.15587 -3.93959,0.35016 -4.454629,0.43175 -0.51503,0.0816 -1.02792,-0.1099 -1.13974,-0.42553 -0.28196,-0.79586 6.375409,-1.37119 10.889859,-0.94112 7.46963,0.71161 15.4508,3.50521 17.97053,6.29013 0.57875,0.63965 1.63927,2.10939 2.35673,3.26609 1.28858,2.07749 2.48554,2.68707 2.91502,1.48454 0.33002,-0.92405 0.72355,-0.33486 1.09117,1.63364 l 0.32818,1.75735 -2.01444,-0.0254 c -1.26723,-0.016 -2.01502,-0.25483 -2.01601,-0.64395 z m 262.771873,0.49485 c 0.0175,-0.61269 3.9214,-3.18419 4.52743,-2.98218 0.30902,0.103 -0.4068,0.89964 -1.59071,1.7703 -2.14827,1.57985 -2.95669,1.91346 -2.93672,1.21188 z m -0.50541,-1.52199 c 0,-0.67134 2.12874,-2.45741 3.58763,-3.01012 1.65376,-0.62654 1.84963,0.16046 0.24742,0.99417 -0.61237,0.31865 -1.51177,0.99453 -1.99866,1.50195 -0.92261,0.96151 -1.83639,1.21728 -1.83639,0.514 z m -83.13402,-1.85357 c 0,-0.15552 0.34463,-0.62739 0.76583,-1.0486 0.95312,-0.95312 1.58395,-0.45345 0.72863,0.57715 -0.61784,0.74445 -1.49446,1.021 -1.49446,0.47145 z m 3.95876,-0.86808 c 0,-0.36081 0.5567,-1.179 1.23712,-1.81822 0.68041,-0.63921 1.23711,-1.55054 1.23711,-2.02517 0,-1.42711 0.55572,-2.42844 1.34775,-2.42844 0.54827,0 0.66583,0.32912 0.4419,1.23712 -0.16781,0.68041 -0.44497,1.8072 -0.61591,2.50398 -0.24941,1.01662 -0.10279,1.32126 0.74227,1.54225 0.57918,0.15146 1.05306,0.47209 1.05306,0.71251 0,0.71716 -1.58912,0.49587 -2.52569,-0.35171 -0.80297,-0.72668 -0.92267,-0.70718 -1.51882,0.24742 -0.73372,1.17486 -1.39879,1.35566 -1.39879,0.38026 z m 96.49485,-0.78729 c 0,-1.2976 -0.18501,-1.52577 -1.23712,-1.52577 -0.68041,0 -1.68247,0.44536 -2.2268,0.98969 -0.54433,0.54433 -1.10103,0.98969 -1.23712,0.98969 -0.57711,0 -0.18555,-2.4044 0.48176,-2.95821 0.40104,-0.33283 0.87118,-1.36216 1.04476,-2.28739 0.32305,-1.72203 1.19513,-2.34498 1.19513,-0.85371 0,0.70354 0.17278,0.66621 1.1453,-0.24742 2.07413,-1.94855 2.41872,-1.47252 2.16344,2.98868 -0.13366,2.33568 -0.46585,4.14238 -0.78097,4.24742 -0.32223,0.10741 -0.54838,-0.44643 -0.54838,-1.34298 z m 0.32856,-3.29076 c 0.13749,-0.35829 0.17548,-1.01271 0.0844,-1.45428 -0.12868,-0.624 -0.52748,-0.42853 -1.79014,0.87747 l -1.62457,1.68034 1.54016,-0.22605 c 0.84709,-0.12433 1.65265,-0.51919 1.79013,-0.87748 z m 22.68174,3.56148 c -0.36826,-0.52673 -2.55965,-0.83379 -8.56681,-1.2004 -7.3006,-0.44554 -9.08436,-0.71491 -8.46411,-1.27819 0.1134,-0.10298 4.38901,0.0507 9.50134,0.34159 8.08333,0.45989 9.25689,0.62946 9.00161,1.30065 -0.22365,0.58803 -0.15544,0.63479 0.28647,0.19638 0.74514,-0.73927 0.18385,-1.65137 -1.01623,-1.65137 -0.5122,0 -1.07868,-0.2385 -1.25883,-0.53 -0.21373,-0.34581 0.23168,-0.47479 1.28171,-0.37113 1.94156,0.19167 2.94923,1.48321 2.15086,2.7568 -0.69672,1.11144 -2.27832,1.34774 -2.91601,0.43567 z m 7.65929,-0.0776 c -0.4999,-0.60235 -0.42754,-0.72924 0.41587,-0.72924 0.56159,0 1.1587,-0.22268 1.32691,-0.49484 0.1682,-0.27217 -0.15267,-0.49485 -0.71307,-0.49485 -1.28605,0 -1.29592,-0.58559 -0.0292,-1.73196 0.54433,-0.49261 0.98969,-1.11834 0.98969,-1.3905 0,-0.91822 -2.05529,1.35655 -2.769,3.06468 -0.38935,0.93185 -0.83469,1.56749 -0.98965,1.41253 -0.43337,-0.43336 0.35005,-5.80836 0.84658,-5.80836 0.24081,0 0.43783,0.36853 0.43783,0.81897 0,0.76205 0.0629,0.76205 0.90495,0 0.49772,-0.45044 1.2771,-0.81897 1.73195,-0.81897 0.93873,0 1.0734,1.08924 0.31084,2.5141 -0.39958,0.74661 -0.34368,1.0307 0.24742,1.25753 1.20674,0.46307 0.89305,1.57932 -0.67115,2.3882 -1.26327,0.65326 -1.50711,0.65478 -2.03998,0.0127 z m -351.7287892,-1.96199 -1.4650416,-1.23275 -0.773774,1.10904 c -0.735741,1.05453 -0.774677,1.06039 -0.792151,0.11935 -0.01011,-0.54433 0.184631,-1.31054 0.432755,-1.7027 0.291293,-0.46038 0.200944,-1.19682 -0.255,-2.07852 -0.785838,-1.51964 -0.903503,-2.40435 -0.319777,-2.40435 0.212496,0 0.655767,0.71375 0.985046,1.58611 l 0.59869,1.58611 1.6454266,-1.59481 c 0.904985,-0.87715 1.8017122,-1.43853 1.9927272,-1.24751 0.191015,0.19101 -0.3803272,1.10117 -1.2696492,2.02257 l -1.616948,1.67527 1.608247,1.44307 c 0.884536,0.79369 1.6082472,1.55755 1.6082472,1.69747 0,0.58878 -1.0100832,0.17335 -2.3787982,-0.97835 z M 229.04185,31.972024 c 0.17095,-0.2766 0.51811,-0.3748 0.77147,-0.21821 0.68637,0.4242 0.55839,0.72113 -0.31082,0.72113 -0.42431,0 -0.6316,-0.22631 -0.46065,-0.50292 z M 48.422427,28.522874 c -0.16595,-0.26851 -0.0805,-1.28952 0.18995,-2.26891 0.4362,-1.57978 0.39716,-1.7439 -0.34604,-1.45452 -1.48996,0.58016 -1.76511,0.51655 -1.97553,-0.4567 -0.21315,-0.98583 1.04635,-2.25951 2.23434,-2.25951 1.03779,0 1.74241,2.41553 1.1774,4.03631 l -0.48652,1.39562 1.45073,-1.07257 c 0.7979,-0.58991 1.58607,-0.93723 1.75148,-0.77182 0.30314,0.30314 -2.71629,3.29881 -3.35216,3.32579 -0.18806,0.008 -0.4777,-0.20519 -0.64365,-0.47369 z m -0.25153,-4.95511 c 0,-0.27216 -0.0982,-0.49484 -0.21822,-0.49484 -0.12002,0 -0.35584,0.22268 -0.52405,0.49484 -0.16821,0.27217 -0.07,0.49485 0.21822,0.49485 0.28823,0 0.52405,-0.22268 0.52405,-0.49485 z m 294.874563,5.22023 c -0.0293,-0.0134 -0.11329,-1.52744 -0.18666,-3.36456 -0.0734,-1.83711 0.0381,-3.3402 0.24774,-3.3402 0.48725,0 0.98187,1.28245 0.98187,2.5458 0,0.72207 0.28119,0.93954 1.0674,0.82551 0.58707,-0.0851 1.16233,0.12353 1.27835,0.46374 0.13369,0.392 -0.26796,0.61856 -1.09661,0.61856 -0.74569,0 -1.17613,0.21263 -1.00172,0.49484 0.16821,0.27217 0.73805,0.49485 1.26632,0.49485 1.66252,0 1.04175,0.87192 -0.77148,1.08361 -0.95257,0.1112 -1.75592,0.19124 -1.78521,0.17785 z m -28.64777,-2.25115 c 0,-0.27217 0.47262,-0.49485 1.05027,-0.49485 0.85802,0 0.94203,-0.13044 0.45891,-0.71256 -0.32525,-0.39191 -1.02938,-0.7816 -1.56472,-0.86598 -1.34464,-0.21194 -1.26857,-0.97135 0.2077,-2.07354 0.86041,-0.6424 1.6488,-0.8294 2.54665,-0.60405 0.71523,0.17951 1.17285,0.53281 1.01691,0.78511 -0.15592,0.2523 -0.61039,0.33329 -1.00993,0.17997 -0.39952,-0.15331 -1.10931,-0.13182 -1.5773,0.0478 -0.71989,0.27625 -0.59602,0.52598 0.80468,1.62219 1.55081,1.21369 1.59867,1.33728 0.75631,1.95323 -1.05728,0.7731 -2.68948,0.87185 -2.68948,0.16271 z m 11.73789,-1.28043 c -0.75653,-0.41027 -1.23575,-0.97209 -1.06493,-1.24848 0.17082,-0.27639 -0.0798,-0.93386 -0.55686,-1.46104 -0.7207,-0.79638 -0.74188,-0.95851 -0.12517,-0.95851 0.75664,0 2.76254,1.88968 2.46267,2.32 -0.0907,0.13018 -0.009,0.38516 0.18152,0.5666 0.19055,0.18144 0.19142,-0.39381 0.002,-1.27835 -0.1895,-0.88454 -0.20415,-1.60825 -0.0326,-1.60825 0.50942,0 1.8028,3.46657 1.48514,3.98055 -0.38417,0.62159 -0.70883,0.57845 -2.35174,-0.31252 z m 28.84244,-4.03916 c -0.002,-0.36289 0.66171,-0.6301 1.60523,-0.64649 l 1.60825,-0.0279 -1.59626,-0.59063 c -1.10875,-0.41024 -2.19175,-1.52066 -3.5461,-3.63585 -1.71598,-2.67998 -2.38513,-3.25911 -5.579,-4.82845 -1.99604,-0.980771 -5.72907,-2.2375906 -8.29563,-2.7929306 -4.74028,-1.02568 -12.48187,-1.36415 -16.01993,-0.7004 -1.16744,0.21901 -1.82906,0.15477 -1.82906,-0.17758 0,-0.2864 0.21602,-0.65423 0.48005,-0.8174 0.26403,-0.16318 3.32588,-0.30108 6.80412,-0.30644 4.62579,-0.007 7.56404,0.26675 10.94142,1.01984 5.31753,1.1857 7.31246,1.9488 10.58571,4.0492506 1.54969,0.99443 2.95339,2.50204 4.12438,4.4297 1.70964,2.81436 2.85483,3.60603 3.33236,2.30366 0.34298,-0.9354 1.16092,0.11129 1.4971,1.91579 l 0.28777,1.54466 -2.19869,-0.0601 c -1.39517,-0.0382 -2.1998,-0.28617 -2.20172,-0.67868 z m -22.76589,-0.22411 c 2e-5,-0.58604 3.04287,-3.36352 3.68489,-3.36352 0.76602,0 0.066,0.99107 -1.70552,2.41473 -1.1342,0.91146 -1.97938,1.31659 -1.97937,0.94879 z m -10.89654,-1.64352 c -0.34427,-0.41483 -0.48826,-0.89192 -0.31997,-1.06021 0.3594,-0.3594 1.81444,0.7474 1.81444,1.38018 0,0.68163 -0.80653,0.50894 -1.49447,-0.31997 z m 9.41957,0.38309 c 0.0131,-0.643 0.68423,-1.37328 2.29562,-2.49807 1.64198,-1.14614 3.1401,-1.42987 3.1401,-0.59471 0,0.27216 -0.32627,0.49484 -0.72505,0.49484 -0.39878,0 -1.4859,0.66804 -2.41584,1.48454 -1.70815,1.49978 -2.30867,1.79114 -2.29483,1.1134 z m -13.98607,-4.004 c -0.74797,-0.45141 -1.36034,-0.98775 -1.36083,-1.19187 -0.002,-0.79392 1.59079,-0.31185 2.86102,0.86597 1.53389,1.42231 0.63875,1.61677 -1.50019,0.3259 z m -4.58233,-0.18005 c -0.54206,-0.28721 -1.3447,-0.97058 -1.78365,-1.51859 -0.8353,-1.04286 -1.92357,-0.80962 -1.92357,0.41226 0,0.39218 -0.22268,0.71306 -0.49484,0.71306 -0.64114,0 -0.62637,-0.65446 0.0482,-2.13493 0.42402,-0.93061 0.3698,-1.52679 -0.24742,-2.720361 -0.89381,-1.7283996 -1.00295,-2.5673896 -0.33399,-2.5673896 0.25105,0 0.72042,0.7998 1.04304,1.77733 l 0.58657,1.7773206 1.57845,-1.5299006 c 1.3898,-1.34705 2.76845,-1.98902 2.76845,-1.28914 0,0.13242 -0.81105,0.98404 -1.80235,1.8924896 l -1.80235,1.651741 1.85184,1.85183 c 1.01851,1.01851 1.77204,1.93163 1.67452,2.02916 -0.0975,0.0975 -0.62083,-0.0577 -1.16289,-0.34488 z m 41.50503,-5.088111 c -0.15535,-0.40484 -0.036,-1.4430096 0.26519,-2.3070396 0.60353,-1.7313 0.3537,-2.40863 -0.55373,-1.50121 -0.96874,0.96875 -1.87216,0.66274 -1.87216,-0.63413 0,-1.14772 1.19897,-2.24422 2.45394,-2.24422 0.94683,0 1.55768,2.45125 1.06002,4.25365 l -0.46145,1.67122 1.69024,-1.28921 c 0.92963,-0.70907 1.69024,-1.08378 1.69024,-0.8327 0,0.53342 -3.09227,3.6197206 -3.62672,3.6197206 -0.19971,0 -0.49021,-0.33124 -0.64557,-0.736081 z"
       style="fill:#000000;stroke-width:0.494845;image-rendering:auto" />
  </g>
</svg>
